<svg fill="none" xmlns="http://www.w3.org/2000/svg" viewBox="0 0 187 34"><path fill-rule="evenodd" clip-rule="evenodd" d="M45.946 18.293l2.179-8.146h2.935l-3.872 13.262h-3.343L41.82 14.9l-2.026 8.51h-3.186l-3.974-13.262h3.974l2.073 8.118 1.96-8.118h3.417l1.873 8.146h.016zm-16.813.744c-.517 2.13-1.81 3.334-3.977 3.334-2.744 0-4.174-2.554-4.174-5.136h9.774c.133-3.778-1.6-7.35-5.6-7.35-3.83 0-5.745 3.184-5.745 6.91 0 3.794 1.74 6.869 5.745 6.869 3.049 0 4.804-1.491 5.518-4.526l-1.54-.117v.016zm-3.977-7.795c2.469 0 3.962 2.227 4.028 4.635h-8.202c.267-2.404 1.638-4.635 4.174-4.635zM9.406 12.56c.615-1.685 2.437-2.683 4.122-2.683 3.457 0 4.668 1.799 4.668 5.068v8.453h-1.568V15.21c0-2.247-.71-3.964-3.23-3.964-2.519 0-3.938 2.065-3.993 4.514v7.637H7.838V5.617h1.567v6.942zm-3.057-2.424v1.382h-2.56v9.12c0 1.018.13 1.657 1.239 1.722.44 0 .88-.034 1.317-.102v1.37c-.463 0-.921.049-1.384.049-2.104 0-2.79-.748-2.743-2.91v-9.25H0v-1.365h2.218V6.838l1.568-.174v3.487l2.563-.016zM130.932 14.1c-.329-1.253-1.29-1.774-2.504-1.774-.761 0-1.925.206-1.925 1.172 0 2.481 7.721-.34 7.721 5.657 0 3.27-2.99 4.514-5.722 4.514-2.731 0-5.189-.938-5.878-3.916l3.213-.468c.255 1.357 1.646 1.773 2.834 1.773.709 0 2.253-.258 2.253-1.252 0-.885-.756-1.043-1.442-1.124a26.32 26.32 0 01-3.821-.78 3.65 3.65 0 01-1.832-1.362 3.834 3.834 0 01-.7-2.214c0-3.265 2.743-4.445 5.487-4.445 2.531 0 4.177.99 5.063 3.471l-2.743.756-.004-.008zm-12.607 7.04c-.608 1.668-1.96 2.529-3.723 2.529-1.29 0-2.407-.287-3.136-1.487-.729-1.2-.631-2.4-.631-3.681v-8.353h3.72V18.5c0 1.07.101 2.089 1.418 2.089.401.002.793-.118 1.126-.346a2.06 2.06 0 00.747-.935c.251-.598.204-1.354.204-2.02v-7.141h3.719v13.262h-3.441v-2.27h-.003zm-17.087-4.777c0 1.511-.027 4.748 2.101 4.748 2.127 0 2.202-2.61 2.202-4.203 0-1.685.051-4.489-2.179-4.489-1.999 0-2.124 2.425-2.124 3.944zm8.3.521c0 3.782-2.402 6.785-6.199 6.785-3.95 0-6.102-3.08-6.102-6.918 0-3.839 2.179-6.87 6.102-6.87 4.024 0 6.199 3.08 6.199 6.995v.008zm-20.77-4.91c.482-1.329 2.002-2.085 3.394-2.085a3.895 3.895 0 011.772.33 4.01 4.01 0 011.453 1.097c.784 1.042.71 2.376.71 3.637v8.457h-3.72v-7.152c0-1.148.126-3.318-1.493-3.318-1.96 0-2.104 1.75-2.104 3.318v7.152h-3.72V5.63h3.72v6.345h-.012zm54.681 3.185c-.079-1.435-.533-2.764-2.152-2.764-1.618 0-2.28 1.252-2.406 2.764h4.558zm-4.53 2.27l-.028.655c0 3.896 4.758 3.41 4.758.756l3.444.263c0 .65-1.493 4.566-5.847 4.566-3.848 0-6.352-2.768-6.352-6.708 0-3.94 2.249-7.072 6.251-7.072 4.283 0 6.082 3.589 6.023 7.54h-8.249zm-58.796-2.27c-.075-1.435-.533-2.764-2.152-2.764-1.618 0-2.277 1.252-2.406 2.764h4.558zm-4.53 2.27l-.028.655c0 3.896 4.761 3.41 4.761.756l3.441.263c0 .65-1.493 4.566-5.847 4.566-3.848 0-6.352-2.768-6.352-6.708 0-3.94 2.253-7.072 6.25-7.072 4.284 0 6.083 3.589 6.024 7.54h-8.25zm-7.744-4.8c.391-1.41 1.175-2.873 2.81-2.74l.63.053v3.835c-2.833-.158-3.186 2.218-3.186 4.566v5.067H64.38V10.147h3.469v2.481zm-8.99 4.445c-1.415.158-4.025.497-4.025 2.425 0 2.186 2.52 2.23 3.527.65.533-.836.505-1.616.505-2.558v-.525l-.008.008zm.356 6.344h3.696a6.553 6.553 0 01-.255-1.988v-6.19c0-1.593.13-3.055-1.176-4.15-1.038-.89-2.743-1.213-4.075-1.213-2.708 0-5.745.938-6.126 4.15l3.527.34c0-2.073 2.885-2.47 3.75-1.306.393.493.326 1.172.326 1.746v.315c-1.567.158-3.617.259-5.095.837-1.697.65-2.884 1.984-2.884 3.94 0 2.505 1.772 3.758 4.048 3.758 1.925 0 3.038-.756 4.103-2.324a8.004 8.004 0 00.161 2.077v.008zM179.583 0h-18.121c-1.97 0-3.86.805-5.256 2.239a7.8 7.8 0 00-2.19 5.41v18.698a7.797 7.797 0 002.189 5.413 7.334 7.334 0 005.257 2.24h18.136a7.333 7.333 0 005.229-2.256 7.797 7.797 0 002.174-5.397V7.649a7.801 7.801 0 00-2.18-5.4A7.336 7.336 0 00179.583 0zm-21.946 23.405l8.798-13.157h5.134l-8.818 13.157h-5.114zm16.816 0h-8.532l8.818-13.157h8.504l-8.79 13.157z" fill="#fff"/></svg>
